<svg xmlns="http://www.w3.org/2000/svg" xmlns:xlink="http://www.w3.org/1999/xlink" width="73" height="82" viewBox="0 0 73 82">
  <defs>
    <filter id="Polígono_1" x="0" y="0" width="73" height="82" filterUnits="userSpaceOnUse">
      <feOffset dy="2" input="SourceAlpha"/>
      <feGaussianBlur stdDeviation="2" result="blur"/>
      <feFlood flood-opacity="0.161"/>
      <feComposite operator="in" in2="blur"/>
      <feComposite in="SourceGraphic"/>
    </filter>
  </defs>
  <g transform="matrix(1, 0, 0, 1, 0, 0)" filter="url(#Polígono_1)">
    <g id="Polígono_1-2" data-name="Polígono 1" transform="translate(67 4) rotate(90)" fill="#fff">
      <path d="M 66.546630859375 60.95000457763672 L 3.453370094299316 60.95000457763672 C 2.749500036239624 60.95000457763672 2.118680000305176 60.58636093139648 1.76593005657196 59.97726440429688 C 1.413179993629456 59.36817169189453 1.411710023880005 58.64005279541016 1.762009978294373 58.029541015625 L 33.30863952636719 3.048272848129272 C 33.66056060791016 2.43491268157959 34.29285049438477 2.068732738494873 35 2.068732738494873 C 35.70714950561523 2.068732738494873 36.33943939208984 2.43491268157959 36.69136047363281 3.048272848129272 L 68.23799896240234 58.029541015625 C 68.58828735351562 58.64005279541016 68.58682250976562 59.36817169189453 68.23406982421875 59.97726440429688 C 67.88131713867188 60.58636093139648 67.25050354003906 60.95000457763672 66.546630859375 60.95000457763672 Z" stroke="none"/>
      <path d="M 35 2.118732452392578 C 34.31097030639648 2.118732452392578 33.69490051269531 2.475521087646484 33.35200881958008 3.073162078857422 L 1.805366516113281 58.0544319152832 C 1.464057922363281 58.64928436279297 1.465492248535156 59.35873413085938 1.809196472167969 59.95221328735352 C 2.152908325195312 60.54568099975586 2.767547607421875 60.90000152587891 3.453369140625 60.90000152587891 L 66.546630859375 60.90000152587891 C 67.23245239257812 60.90000152587891 67.84709167480469 60.54568099975586 68.19080352783203 59.95220184326172 C 68.53450775146484 59.35873413085938 68.53594207763672 58.64928436279297 68.19461822509766 58.0544319152832 L 36.64799118041992 3.073162078857422 C 36.30509185791016 2.475532531738281 35.68901824951172 2.118732452392578 35 2.118732452392578 M 35 2.018730163574219 C 35.67521667480469 2.018730163574219 36.35043334960938 2.353618621826172 36.7347297668457 3.023391723632812 L 68.28135681152344 58.00466156005859 C 69.04638671875 59.33798217773438 68.08383941650391 61.00000381469727 66.546630859375 61.00000381469727 L 3.453369140625 61.00000381469727 C 1.916160583496094 61.00000381469727 0.95361328125 59.33798217773438 1.7186279296875 58.00466156005859 L 33.2652702331543 3.023391723632812 C 33.64956665039062 2.353618621826172 34.32478332519531 2.018730163574219 35 2.018730163574219 Z" stroke="none" fill="#c7c7c7"/>
    </g>
  </g>
</svg>
