<svg xmlns="http://www.w3.org/2000/svg" width="31" height="31" viewBox="0 0 31 31">
  <g id="Grupo_269" data-name="Grupo 269" transform="translate(0.5 0.5)">
    <path id="Trazado_62" data-name="Trazado 62" d="M19.079,6.782c4.005,0,4.48.015,6.061.087a8.3,8.3,0,0,1,2.785.516,4.968,4.968,0,0,1,2.847,2.847,8.3,8.3,0,0,1,.516,2.785c.072,1.582.087,2.056.087,6.061s-.015,4.48-.087,6.061a8.3,8.3,0,0,1-.516,2.785,4.968,4.968,0,0,1-2.847,2.847,8.3,8.3,0,0,1-2.785.516c-1.581.072-2.056.087-6.061.087s-4.48-.015-6.061-.087a8.3,8.3,0,0,1-2.785-.516,4.968,4.968,0,0,1-2.847-2.847,8.3,8.3,0,0,1-.516-2.785c-.072-1.582-.087-2.056-.087-6.061s.015-4.48.087-6.061a8.3,8.3,0,0,1,.516-2.785,4.968,4.968,0,0,1,2.847-2.847,8.3,8.3,0,0,1,2.785-.516c1.582-.072,2.056-.087,6.061-.087m0-2.7c-4.074,0-4.585.017-6.184.09a11.01,11.01,0,0,0-3.641.7A7.67,7.67,0,0,0,4.867,9.253a11.01,11.01,0,0,0-.7,3.641c-.073,1.6-.09,2.111-.09,6.184s.017,4.585.09,6.184a11.01,11.01,0,0,0,.7,3.641,7.67,7.67,0,0,0,4.387,4.387,11.01,11.01,0,0,0,3.641.7c1.6.073,2.111.09,6.184.09s4.585-.017,6.184-.09a11.01,11.01,0,0,0,3.641-.7A7.67,7.67,0,0,0,33.291,28.9a11.01,11.01,0,0,0,.7-3.641c.073-1.6.09-2.111.09-6.184s-.017-4.585-.09-6.184a11.01,11.01,0,0,0-.7-3.641A7.67,7.67,0,0,0,28.9,4.867a11.01,11.01,0,0,0-3.641-.7c-1.6-.073-2.111-.09-6.184-.09Z" transform="translate(-4.079 -4.079)" fill="#001d42" stroke="rgba(0,0,0,0)" stroke-width="1"/>
    <path id="Trazado_63" data-name="Trazado 63" d="M133.551,126.635a6.916,6.916,0,1,0,6.916,6.916A6.916,6.916,0,0,0,133.551,126.635Zm0,11.4a4.489,4.489,0,1,1,4.489-4.489A4.489,4.489,0,0,1,133.551,138.04Z" transform="translate(-118.551 -118.551)" fill="#001d42" stroke="rgba(0,0,0,0)" stroke-width="1"/>
    <circle id="Elipse_60" data-name="Elipse 60" cx="1.798" cy="1.798" r="1.798" transform="translate(21.211 5.194)" fill="#001d42" stroke="rgba(0,0,0,0)" stroke-width="1"/>
  </g>
</svg>
